# xmcd
#
# Track frame offsets:
#	150
#	19407
#	38637
#	59157
#	77277
#	100680
#	128090
#	147297
#	168482
#	189367
#	212720
#
# Disc length: 3316 seconds
#
# Revision: 3
# Processed by: cddbd v1.5.2PL0 Copyright (c) Steve Scherf et al.
# Submitted via: EZCDAudioConverter 8.0.2.1
#
DISCID=910cf20b
DTITLE=Various Artist - Top Hits 11. Men Say Tình Ái
DYEAR=2002
DGENRE=Pop
TTITLE0=Nguyễn Hưng - Vứt đi chữ tình
TTITLE1=Như Loan - Men Say Tình Ái
TTITLE2=Thủy Tiên - Em sẽ đến
TTITLE3=Lynda and Tommy - Dance For Me
TTITLE4=Lương Tùng Quang - Ngàn năm anh mãi yêu
TTITLE5=Nguyễn Hưng, Phi Nhung - Chuyện làm dâu
TTITLE6=Loan Châu - Giấc mơ mùa đông
TTITLE7=Châu Ngọc - Mất nhau thật sao
TTITLE8=Trúc Lam and Trúc Linh - Nói với người tình
TTITLE9=Lây Minh - Phiêu du
TTITLE10=Hợp Ca - Tình khúc cho em
EXTD=
EXTT0=
EXTT1=
EXTT2=
EXTT3=
EXTT4=
EXTT5=
EXTT6=
EXTT7=
EXTT8=
EXTT9=
EXTT10=
PLAYORDER=
